<?xml version="1.0" encoding="UTF-8"?>
<svg id="Capa_2" data-name="Capa 2" xmlns="http://www.w3.org/2000/svg" viewBox="0 0 300 300">
  <defs>
    <style>
      .cls-1 {
        fill: #54a9ff;
      }
    </style>
  </defs>
  <g id="Capa_1-2" data-name="Capa 1">
    <g>
      <rect class="cls-1" x="10" y="80" width="10" height="10"/>
      <polygon class="cls-1" points="10 180 0 180 0 160 10 160 10 150 30 150 30 140 50 140 50 130 80 130 80 120 100 120 100 110 120 110 120 100 140 100 140 90 160 90 160 80 180 80 180 70 200 70 200 60 220 60 220 50 250 50 250 40 260 40 260 60 240 60 240 70 220 70 220 80 200 80 200 90 180 90 180 100 160 100 160 110 140 110 140 120 120 120 120 130 90 130 90 140 70 140 70 150 50 150 50 160 30 160 30 170 10 170 10 180"/>
      <polygon class="cls-1" points="10 140 0 140 0 120 10 120 10 110 30 110 30 100 50 100 50 90 70 90 70 80 90 80 90 70 120 70 120 60 140 60 140 50 160 50 160 40 180 40 180 30 200 30 200 20 240 20 240 30 220 30 220 40 200 40 200 50 180 50 180 60 160 60 160 70 130 70 130 80 110 80 110 90 90 90 90 100 70 100 70 110 50 110 50 120 30 120 30 130 10 130 10 140"/>
      <polygon class="cls-1" points="30 210 10 210 10 190 30 190 30 180 50 180 50 170 80 170 80 160 100 160 100 150 120 150 120 140 140 140 140 130 160 130 160 120 180 120 180 110 200 110 200 100 230 100 230 90 250 90 250 80 270 80 270 70 280 70 280 80 290 80 290 90 270 90 270 100 250 100 250 110 230 110 230 120 200 120 200 130 180 130 180 140 160 140 160 150 140 150 140 160 120 160 120 170 90 170 90 180 70 180 70 190 50 190 50 200 30 200 30 210"/>
      <polygon class="cls-1" points="20 80 20 70 30 70 30 60 50 60 50 50 70 50 70 40 90 40 90 30 110 30 110 20 140 20 140 10 160 10 160 0 190 0 190 10 180 10 180 20 150 20 150 30 130 30 130 40 110 40 110 50 90 50 90 60 70 60 70 70 50 70 50 80 20 80"/>
      <polygon class="cls-1" points="270 240 270 250 260 250 260 260 250 260 250 270 230 270 230 280 210 280 210 290 190 290 190 300 140 300 140 290 170 290 170 280 190 280 190 270 210 270 210 260 230 260 230 250 250 250 250 240 270 240"/>
      <rect class="cls-1" x="290" y="180" width="10" height="10"/>
      <polygon class="cls-1" points="300 110 300 120 290 120 290 130 270 130 270 140 250 140 250 150 230 150 230 160 200 160 200 170 180 170 180 180 160 180 160 190 140 190 140 200 120 200 120 210 100 210 100 220 70 220 70 230 50 230 50 240 30 240 30 220 50 220 50 210 80 210 80 200 100 200 100 190 120 190 120 180 140 180 140 170 160 170 160 160 180 160 180 150 210 150 210 140 230 140 230 130 250 130 250 120 270 120 270 110 300 110"/>
      <polygon class="cls-1" points="290 190 290 210 270 210 270 220 250 220 250 230 230 230 230 240 200 240 200 250 180 250 180 260 160 260 160 270 140 270 140 280 120 280 120 290 80 290 80 280 100 280 100 270 120 270 120 260 140 260 140 250 160 250 160 240 180 240 180 230 210 230 210 220 230 220 230 210 250 210 250 200 270 200 270 190 290 190"/>
      <polygon class="cls-1" points="290 140 300 140 300 160 290 160 290 170 270 170 270 180 250 180 250 190 230 190 230 200 200 200 200 210 180 210 180 220 160 220 160 230 140 230 140 240 120 240 120 250 100 250 100 260 70 260 70 270 50 270 50 250 80 250 80 240 100 240 100 230 120 230 120 220 140 220 140 210 160 210 160 200 180 200 180 190 210 190 210 180 230 180 230 170 250 170 250 160 270 160 270 150 290 150 290 140"/>
    </g>
  </g>
</svg>