<?xml version="1.0" encoding="UTF-8"?>
<svg id="Capa_2" data-name="Capa 2" xmlns="http://www.w3.org/2000/svg" viewBox="0 0 112.94 112">
  <defs>
    <style>
      .cls-1 {
        fill: #54a9ff;
      }
    </style>
  </defs>
  <g id="Capa_1-2" data-name="Capa 1">
    <g>
      <rect class="cls-1" x="80.67" y="68" width="4.03" height="4"/>
      <rect class="cls-1" x="12.1" y="96" width="4.04" height="4"/>
      <rect class="cls-1" x="96.8" y="96" width="4.04" height="4"/>
      <polygon class="cls-1" points="112.94 52 112.94 60 96.8 60 96.8 64 84.7 64 84.7 68 80.67 68 80.67 72 84.7 72 84.7 76 88.74 76 88.74 80 92.77 80 92.77 88 96.8 88 96.8 96 88.74 96 88.74 92 80.67 92 80.67 88 76.64 88 76.64 84 64.54 84 64.54 96 60.5 96 60.5 112 52.44 112 52.44 96 48.4 96 48.4 84 36.3 84 36.3 88 32.27 88 32.27 92 24.2 92 24.2 96 16.14 96 16.14 92 20.17 92 20.17 84 24.2 84 24.2 76 28.24 76 28.24 64 16.14 64 16.14 60 0 60 0 52 16.14 52 16.14 48 32.27 48 32.27 44 28.24 44 28.24 36 24.2 36 24.2 32 20.17 32 20.17 24 16.14 24 16.14 16 20.17 16 20.17 20 28.24 20 28.24 24 36.3 24 36.3 28 44.37 28 44.37 32 48.4 32 48.4 16 52.44 16 52.44 0 60.5 0 60.5 16 64.54 16 64.54 28 76.64 28 76.64 24 84.7 24 84.7 20 92.77 20 92.77 16 96.8 16 96.8 24 92.77 24 92.77 32 88.74 32 88.74 36 84.7 36 84.7 44 80.67 44 80.67 48 96.8 48 96.8 52 112.94 52"/>
    </g>
  </g>
</svg>