<?xml version="1.0" encoding="UTF-8"?>
<svg id="Capa_2" data-name="Capa 2" xmlns="http://www.w3.org/2000/svg" viewBox="0 0 211 70">
  <defs>
    <style>
      .cls-1 {
        fill: #dea2c9;
      }
    </style>
  </defs>
  <g id="Capa_1-2" data-name="Capa 1">
    <g>
      <rect class="cls-1" x="133.64" y="42" width="7.03" height="2.33"/>
      <rect class="cls-1" x="175.84" y="35" width="7.03" height="2.33"/>
      <polygon class="cls-1" points="203.97 58.33 211 58.33 211 67.67 196.94 67.67 196.94 63 189.9 63 189.9 60.67 182.87 60.67 182.87 65.33 175.84 65.33 175.84 67.67 161.77 67.67 161.77 63 154.74 63 154.74 58.33 147.7 58.33 147.7 65.33 140.67 65.33 140.67 67.67 126.6 67.67 126.6 65.33 119.57 65.33 119.57 60.67 112.54 60.67 112.54 63 105.5 63 105.5 67.67 98.47 67.67 98.47 70 91.44 70 91.44 67.67 84.4 67.67 84.4 63 70.34 63 70.34 67.67 63.3 67.67 63.3 70 56.27 70 56.27 67.67 49.24 67.67 49.24 63 35.17 63 35.17 67.67 28.14 67.67 28.14 70 14.07 70 14.07 65.33 7.04 65.33 7.04 60.67 0 60.67 0 51.33 14.07 51.33 14.07 56 21.1 56 21.1 58.33 28.14 58.33 28.14 53.67 35.17 53.67 35.17 49 42.2 49 42.2 51.33 49.24 51.33 49.24 56 56.27 56 56.27 58.33 63.3 58.33 63.3 56 70.34 56 70.34 51.33 77.37 51.33 77.37 49 84.4 49 84.4 53.67 91.44 53.67 91.44 58.33 98.47 58.33 98.47 56 105.5 56 105.5 51.33 112.54 51.33 112.54 49 119.57 49 119.57 51.33 126.6 51.33 126.6 56 140.67 56 140.67 51.33 147.7 51.33 147.7 49 154.74 49 154.74 51.33 161.77 51.33 161.77 56 168.8 56 168.8 58.33 175.84 58.33 175.84 51.33 182.87 51.33 182.87 49 196.94 49 196.94 53.67 203.97 53.67 203.97 58.33"/>
      <polygon class="cls-1" points="211 9.33 211 21 203.97 21 203.97 18.67 196.94 18.67 196.94 14 189.9 14 189.9 11.67 182.87 11.67 182.87 16.33 175.84 16.33 175.84 21 168.8 21 168.8 18.67 161.77 18.67 161.77 14 154.74 14 154.74 11.67 147.7 11.67 147.7 16.33 140.67 16.33 140.67 21 126.6 21 126.6 16.33 119.57 16.33 119.57 11.67 112.54 11.67 112.54 14 105.5 14 105.5 21 91.44 21 91.44 18.67 84.4 18.67 84.4 14 70.34 14 70.34 18.67 63.3 18.67 63.3 21 56.27 21 56.27 18.67 49.24 18.67 49.24 14 35.17 14 35.17 18.67 28.14 18.67 28.14 21 14.07 21 14.07 16.33 7.04 16.33 7.04 11.67 0 11.67 0 2.33 14.07 2.33 14.07 7 21.1 7 21.1 11.67 28.14 11.67 28.14 4.67 35.17 4.67 35.17 2.33 49.24 2.33 49.24 7 56.27 7 56.27 11.67 63.3 11.67 63.3 7 70.34 7 70.34 2.33 84.4 2.33 84.4 4.67 91.44 4.67 91.44 9.33 98.47 9.33 98.47 7 105.5 7 105.5 2.33 112.54 2.33 112.54 0 119.57 0 119.57 2.33 126.6 2.33 126.6 9.33 133.64 9.33 133.64 7 140.67 7 140.67 2.33 147.7 2.33 147.7 0 154.74 0 154.74 2.33 161.77 2.33 161.77 7 168.8 7 168.8 9.33 175.84 9.33 175.84 2.33 182.87 2.33 182.87 0 196.94 0 196.94 7 203.97 7 203.97 9.33 211 9.33"/>
      <polygon class="cls-1" points="203.97 32.67 211 32.67 211 44.33 203.97 44.33 203.97 42 196.94 42 196.94 37.33 189.9 37.33 189.9 35 175.84 35 175.84 37.33 182.87 37.33 182.87 42 175.84 42 175.84 44.33 161.77 44.33 161.77 39.67 154.74 39.67 154.74 35 147.7 35 147.7 39.67 140.67 39.67 140.67 42 133.64 42 133.64 44.33 126.6 44.33 126.6 42 119.57 42 119.57 35 112.54 35 112.54 39.67 105.5 39.67 105.5 44.33 91.44 44.33 91.44 42 84.4 42 84.4 37.33 77.37 37.33 77.37 39.67 70.34 39.67 70.34 44.33 63.3 44.33 63.3 46.67 56.27 46.67 56.27 44.33 49.24 44.33 49.24 37.33 35.17 37.33 35.17 44.33 28.14 44.33 28.14 46.67 21.1 46.67 21.1 44.33 14.07 44.33 14.07 39.67 7.04 39.67 7.04 37.33 0 37.33 0 25.67 7.04 25.67 7.04 28 14.07 28 14.07 32.67 21.1 32.67 21.1 35 28.14 35 28.14 30.33 35.17 30.33 35.17 25.67 49.24 25.67 49.24 30.33 56.27 30.33 56.27 35 63.3 35 63.3 30.33 70.34 30.33 70.34 25.67 84.4 25.67 84.4 30.33 91.44 30.33 91.44 35 98.47 35 98.47 32.67 105.5 32.67 105.5 25.67 119.57 25.67 119.57 28 126.6 28 126.6 32.67 140.67 32.67 140.67 25.67 147.7 25.67 147.7 23.33 154.74 23.33 154.74 25.67 161.77 25.67 161.77 30.33 168.8 30.33 168.8 32.67 175.84 32.67 175.84 28 182.87 28 182.87 23.33 189.9 23.33 189.9 25.67 196.94 25.67 196.94 30.33 203.97 30.33 203.97 32.67"/>
    </g>
  </g>
</svg>