<?xml version="1.0" encoding="UTF-8"?>
<svg id="Capa_2" data-name="Capa 2" xmlns="http://www.w3.org/2000/svg" viewBox="0 0 400 399.81">
  <defs>
    <style>
      .cls-1 {
        fill: #dea2c9;
      }
    </style>
  </defs>
  <g id="Capa_1-2" data-name="Capa 1">
    <g>
      <polygon class="cls-1" points="200 247.88 208 247.88 208 359.83 216 359.83 216 399.81 184 399.81 184 383.82 192 383.82 192 263.87 200 263.87 200 247.88"/>
      <polygon class="cls-1" points="272 159.92 256 159.92 256 151.93 264 151.93 264 143.93 272 143.93 272 135.93 280 135.93 280 127.94 296 127.94 296 119.94 304 119.94 304 111.95 312 111.95 312 103.95 320 103.95 320 95.95 336 95.95 336 87.96 344 87.96 344 79.96 352 79.96 352 71.96 360 71.96 360 79.96 368 79.96 368 95.95 360 95.95 360 103.95 344 103.95 344 111.95 336 111.95 336 119.94 320 119.94 320 127.94 312 127.94 312 135.93 296 135.93 296 143.93 280 143.93 280 151.93 272 151.93 272 159.92"/>
      <polygon class="cls-1" points="152 199.9 152 207.9 32 207.9 32 215.9 0 215.9 0 183.91 16 183.91 16 191.91 136 191.91 136 199.9 152 199.9"/>
      <polygon class="cls-1" points="208 39.98 208 151.93 200 151.93 200 135.93 192 135.93 192 15.99 184 15.99 184 0 216 0 216 39.98 208 39.98"/>
      <polygon class="cls-1" points="224 191.91 224 207.9 248 207.9 248 215.9 280 215.9 280 223.89 320 223.89 320 231.89 336 231.89 336 239.88 376 239.88 376 247.88 392 247.88 392 271.87 376 271.87 376 263.87 352 263.87 352 255.88 328 255.88 328 247.88 312 247.88 312 239.88 288 239.88 288 231.89 272 231.89 272 223.89 248 223.89 248 231.89 256 231.89 256 239.88 272 239.88 272 247.88 280 247.88 280 255.88 296 255.88 296 263.87 312 263.87 312 271.87 320 271.87 320 279.87 336 279.87 336 287.86 344 287.86 344 295.86 360 295.86 360 303.85 368 303.85 368 319.85 360 319.85 360 327.84 352 327.84 352 319.85 336 319.85 336 303.85 320 303.85 320 295.86 304 295.86 304 279.87 288 279.87 288 271.87 280 271.87 280 263.87 272 263.87 272 255.88 256 255.88 256 271.87 264 271.87 264 279.87 272 279.87 272 287.86 280 287.86 280 303.85 296 303.85 296 319.85 304 319.85 304 335.84 320 335.84 320 351.83 328 351.83 328 359.83 320 359.83 320 367.82 304 367.82 304 359.83 296 359.83 296 343.83 288 343.83 288 335.84 280 335.84 280 319.85 272 319.85 272 311.85 264 311.85 264 295.86 256 295.86 256 279.87 248 279.87 248 271.87 240 271.87 240 255.88 232 255.88 232 247.88 224 247.88 224 271.87 232 271.87 232 287.86 240 287.86 240 311.85 248 311.85 248 327.84 256 327.84 256 351.83 264 351.83 264 375.82 272 375.82 272 391.81 248 391.81 248 375.82 240 375.82 240 335.84 232 335.84 232 311.85 224 311.85 224 279.87 216 279.87 216 247.88 208 247.88 208 223.89 192 223.89 192 247.88 184 247.88 184 279.87 176 279.87 176 319.85 168 319.85 168 343.83 160 343.83 160 375.82 152 375.82 152 391.81 128 391.81 128 375.82 136 375.82 136 351.83 144 351.83 144 327.84 152 327.84 152 311.85 160 311.85 160 287.86 168 287.86 168 271.87 176 271.87 176 247.88 168 247.88 168 255.88 160 255.88 160 239.88 144 239.88 144 231.89 152 231.89 152 223.89 128 223.89 128 231.89 112 231.89 112 239.88 88 239.88 88 247.88 72 247.88 72 255.88 48 255.88 48 263.87 24 263.87 24 271.87 8 271.87 8 247.88 24 247.88 24 239.88 64 239.88 64 231.89 88 231.89 88 223.89 120 223.89 120 215.9 152 215.9 152 207.9 176 207.9 176 191.91 152 191.91 152 183.91 120 183.91 120 175.92 80 175.92 80 167.92 64 167.92 64 159.92 24 159.92 24 151.93 8 151.93 8 127.94 24 127.94 24 135.93 48 135.93 48 143.93 72 143.93 72 151.93 88 151.93 88 159.92 112 159.92 112 167.92 128 167.92 128 175.92 152 175.92 152 167.92 144 167.92 144 159.92 128 159.92 128 151.93 120 151.93 120 143.93 104 143.93 104 135.93 88 135.93 88 127.94 80 127.94 80 119.94 64 119.94 64 111.95 56 111.95 56 103.95 40 103.95 40 95.95 32 95.95 32 79.96 40 79.96 40 71.96 48 71.96 48 79.96 64 79.96 64 95.95 80 95.95 80 103.95 96 103.95 96 127.94 104 127.94 104 119.94 112 119.94 112 127.94 120 127.94 120 135.93 128 135.93 128 143.93 144 143.93 144 127.94 136 127.94 136 119.94 128 119.94 128 111.95 120 111.95 120 95.95 104 95.95 104 79.96 96 79.96 96 63.97 80 63.97 80 47.98 72 47.98 72 39.98 80 39.98 80 31.98 96 31.98 96 39.98 104 39.98 104 55.97 112 55.97 112 63.97 120 63.97 120 79.96 128 79.96 128 87.96 136 87.96 136 103.95 144 103.95 144 119.94 152 119.94 152 127.94 160 127.94 160 143.93 168 143.93 168 151.93 176 151.93 176 127.94 168 127.94 168 111.95 160 111.95 160 87.96 152 87.96 152 71.96 144 71.96 144 47.98 136 47.98 136 23.99 128 23.99 128 8 152 8 152 23.99 160 23.99 160 55.97 168 55.97 168 79.96 176 79.96 176 119.94 184 119.94 184 151.93 192 151.93 192 175.92 208 175.92 208 151.93 216 151.93 216 119.94 224 119.94 224 87.96 232 87.96 232 63.97 240 63.97 240 23.99 248 23.99 248 8 272 8 272 23.99 264 23.99 264 55.97 256 55.97 256 71.96 248 71.96 248 95.95 240 95.95 240 111.95 232 111.95 232 135.93 224 135.93 224 151.93 232 151.93 232 143.93 240 143.93 240 127.94 248 127.94 248 119.94 256 119.94 256 103.95 264 103.95 264 95.95 272 95.95 272 79.96 280 79.96 280 63.97 288 63.97 288 55.97 296 55.97 296 39.98 304 39.98 304 31.98 320 31.98 320 39.98 328 39.98 328 47.98 320 47.98 320 63.97 312 63.97 312 71.96 304 71.96 304 79.96 296 79.96 296 95.95 280 95.95 280 111.95 272 111.95 272 119.94 264 119.94 264 127.94 256 127.94 256 143.93 248 143.93 248 151.93 240 151.93 240 159.92 256 159.92 256 167.92 248 167.92 248 175.92 272 175.92 272 167.92 288 167.92 288 159.92 312 159.92 312 151.93 328 151.93 328 143.93 352 143.93 352 135.93 376 135.93 376 127.94 392 127.94 392 143.93 400 143.93 400 151.93 376 151.93 376 159.92 344 159.92 344 167.92 320 167.92 320 175.92 280 175.92 280 183.91 248 183.91 248 191.91 224 191.91"/>
      <polygon class="cls-1" points="128 239.88 144 239.88 144 255.88 128 255.88 128 263.87 120 263.87 120 271.87 112 271.87 112 279.87 96 279.87 96 295.86 80 295.86 80 303.85 72 303.85 72 311.85 64 311.85 64 319.85 48 319.85 48 327.84 40 327.84 40 319.85 32 319.85 32 303.85 40 303.85 40 295.86 56 295.86 56 287.86 64 287.86 64 279.87 80 279.87 80 271.87 88 271.87 88 263.87 104 263.87 104 255.88 120 255.88 120 247.88 128 247.88 128 239.88"/>
      <polygon class="cls-1" points="152 255.88 160 255.88 160 271.87 152 271.87 152 279.87 144 279.87 144 295.86 136 295.86 136 311.85 128 311.85 128 319.85 120 319.85 120 335.84 112 335.84 112 343.83 104 343.83 104 359.83 96 359.83 96 367.82 80 367.82 80 359.83 72 359.83 72 351.83 80 351.83 80 343.83 88 343.83 88 335.84 96 335.84 96 319.85 104 319.85 104 311.85 112 311.85 112 303.85 120 303.85 120 295.86 128 295.86 128 279.87 136 279.87 136 271.87 144 271.87 144 263.87 152 263.87 152 255.88"/>
      <polygon class="cls-1" points="368 207.9 248 207.9 248 199.9 264 199.9 264 191.91 384 191.91 384 183.91 400 183.91 400 215.9 368 215.9 368 207.9"/>
      <rect class="cls-1" x="96" y="119.94" width="8" height="8"/>
    </g>
  </g>
</svg>