{
  "accessors": [
    {
      "bufferView": 0,
      "componentType": 5126,
      "count": 2874,
      "max": [
        -98.79621887207031,
        -96.56562805175781,
        105.27690887451172
      ],
      "min": [
        -192.9767303466797,
        -127.51483917236328,
        -100.52889251708984
      ],
      "name": "positions",
      "type": "VEC3"
    },
    {
      "bufferView": 1,
      "componentType": 5125,
      "count": 4902,
      "name": "pos_index",
      "type": "SCALAR"
    },
    {
      "bufferView": 2,
      "componentType": 5126,
      "count": 2874,
      "name": "normals",
      "type": "VEC3"
    },
    {
      "bufferView": 3,
      "componentType": 5126,
      "count": 2874,
      "name": "uvs",
      "type": "VEC2"
    },
    {
      "bufferView": 4,
      "componentType": 5126,
      "count": 1432,
      "max": [
        -105.68084716796875,
        -86.17549896240234,
        174.45855712890625
      ],
      "min": [
        -185.3523712158203,
        -126.50740051269531,
        131.94483947753906
      ],
      "name": "positions",
      "type": "VEC3"
    },
    {
      "bufferView": 5,
      "componentType": 5125,
      "count": 4902,
      "name": "pos_index",
      "type": "SCALAR"
    },
    {
      "bufferView": 6,
      "componentType": 5126,
      "count": 1432,
      "name": "normals",
      "type": "VEC3"
    },
    {
      "bufferView": 7,
      "componentType": 5126,
      "count": 1432,
      "name": "uvs",
      "type": "VEC2"
    },
    {
      "bufferView": 8,
      "componentType": 5126,
      "count": 1660,
      "max": [
        154.68710327148438,
        -50.50057601928711,
        162.4228973388672
      ],
      "min": [
        -125.49283599853516,
        -109.91972351074219,
        11.0916748046875
      ],
      "name": "positions",
      "type": "VEC3"
    },
    {
      "bufferView": 9,
      "componentType": 5125,
      "count": 4902,
      "name": "pos_index",
      "type": "SCALAR"
    },
    {
      "bufferView": 10,
      "componentType": 5126,
      "count": 1660,
      "name": "normals",
      "type": "VEC3"
    },
    {
      "bufferView": 11,
      "componentType": 5126,
      "count": 1660,
      "name": "uvs",
      "type": "VEC2"
    },
    {
      "bufferView": 12,
      "componentType": 5126,
      "count": 1024,
      "max": [
        -97.76139068603516,
        -43.48838424682617,
        -62.654876708984375
      ],
      "min": [
        -99.56696319580078,
        -54.57365417480469,
        -73.74153137207031
      ],
      "name": "positions",
      "type": "VEC3"
    },
    {
      "bufferView": 13,
      "componentType": 5125,
      "count": 4902,
      "name": "pos_index",
      "type": "SCALAR"
    },
    {
      "bufferView": 14,
      "componentType": 5126,
      "count": 1024,
      "name": "normals",
      "type": "VEC3"
    },
    {
      "bufferView": 15,
      "componentType": 5126,
      "count": 1024,
      "name": "uvs",
      "type": "VEC2"
    },
    {
      "bufferView": 16,
      "componentType": 5126,
      "count": 1008,
      "max": [
        -114.87591552734375,
        -98.41053771972656,
        170.92527770996094
      ],
      "min": [
        -121.99066925048828,
        -101.52640533447266,
        163.23936462402344
      ],
      "name": "positions",
      "type": "VEC3"
    },
    {
      "bufferView": 17,
      "componentType": 5125,
      "count": 4902,
      "name": "pos_index",
      "type": "SCALAR"
    },
    {
      "bufferView": 18,
      "componentType": 5126,
      "count": 1008,
      "name": "normals",
      "type": "VEC3"
    },
    {
      "bufferView": 19,
      "componentType": 5126,
      "count": 1008,
      "name": "uvs",
      "type": "VEC2"
    },
    {
      "bufferView": 20,
      "componentType": 5126,
      "count": 82,
      "max": [
        -114.06845092773438,
        -98.2481460571289,
        168.94482421875
      ],
      "min": [
        -115.80035400390625,
        -99.38304138183594,
        167.27662658691406
      ],
      "name": "positions",
      "type": "VEC3"
    },
    {
      "bufferView": 21,
      "componentType": 5125,
      "count": 300,
      "name": "pos_index",
      "type": "SCALAR"
    },
    {
      "bufferView": 22,
      "componentType": 5126,
      "count": 82,
      "name": "normals",
      "type": "VEC3"
    },
    {
      "bufferView": 23,
      "componentType": 5126,
      "count": 82,
      "name": "uvs",
      "type": "VEC2"
    },
    {
      "bufferView": 24,
      "componentType": 5126,
      "count": 1413,
      "max": [
        -72.35127258300781,
        68.27289581298828,
        32.19767379760742
      ],
      "min": [
        -87.29801177978516,
        25.546472549438477,
        -30.52387809753418
      ],
      "name": "positions",
      "type": "VEC3"
    },
    {
      "bufferView": 25,
      "componentType": 5125,
      "count": 4896,
      "name": "pos_index",
      "type": "SCALAR"
    },
    {
      "bufferView": 26,
      "componentType": 5126,
      "count": 1413,
      "name": "normals",
      "type": "VEC3"
    },
    {
      "bufferView": 27,
      "componentType": 5126,
      "count": 1413,
      "name": "uvs",
      "type": "VEC2"
    },
    {
      "bufferView": 28,
      "componentType": 5126,
      "count": 2717,
      "max": [
        97.94745635986328,
        119.3867416381836,
        88.1214599609375
      ],
      "min": [
        -97.31204223632813,
        -124.0650405883789,
        -82.8889389038086
      ],
      "name": "positions",
      "type": "VEC3"
    },
    {
      "bufferView": 29,
      "componentType": 5125,
      "count": 4626,
      "name": "pos_index",
      "type": "SCALAR"
    },
    {
      "bufferView": 30,
      "componentType": 5126,
      "count": 2717,
      "name": "normals",
      "type": "VEC3"
    },
    {
      "bufferView": 31,
      "componentType": 5126,
      "count": 2717,
      "name": "uvs",
      "type": "VEC2"
    }
  ],
  "asset": {
    "version": "2.0"
  },
  "bufferViews": [
    {
      "buffer": 0,
      "byteLength": 34488,
      "name": "positions",
      "target": 34962
    },
    {
      "buffer": 1,
      "byteLength": 19608,
      "name": "pos_index",
      "target": 34963
    },
    {
      "buffer": 2,
      "byteLength": 34488,
      "name": "normals",
      "target": 34962
    },
    {
      "buffer": 3,
      "byteLength": 22992,
      "name": "uvs",
      "target": 34962
    },
    {
      "buffer": 4,
      "byteLength": 17184,
      "name": "positions",
      "target": 34962
    },
    {
      "buffer": 5,
      "byteLength": 19608,
      "name": "pos_index",
      "target": 34963
    },
    {
      "buffer": 6,
      "byteLength": 17184,
      "name": "normals",
      "target": 34962
    },
    {
      "buffer": 7,
      "byteLength": 11456,
      "name": "uvs",
      "target": 34962
    },
    {
      "buffer": 8,
      "byteLength": 19920,
      "name": "positions",
      "target": 34962
    },
    {
      "buffer": 9,
      "byteLength": 19608,
      "name": "pos_index",
      "target": 34963
    },
    {
      "buffer": 10,
      "byteLength": 19920,
      "name": "normals",
      "target": 34962
    },
    {
      "buffer": 11,
      "byteLength": 13280,
      "name": "uvs",
      "target": 34962
    },
    {
      "buffer": 12,
      "byteLength": 12288,
      "name": "positions",
      "target": 34962
    },
    {
      "buffer": 13,
      "byteLength": 19608,
      "name": "pos_index",
      "target": 34963
    },
    {
      "buffer": 14,
      "byteLength": 12288,
      "name": "normals",
      "target": 34962
    },
    {
      "buffer": 15,
      "byteLength": 8192,
      "name": "uvs",
      "target": 34962
    },
    {
      "buffer": 16,
      "byteLength": 12096,
      "name": "positions",
      "target": 34962
    },
    {
      "buffer": 17,
      "byteLength": 19608,
      "name": "pos_index",
      "target": 34963
    },
    {
      "buffer": 18,
      "byteLength": 12096,
      "name": "normals",
      "target": 34962
    },
    {
      "buffer": 19,
      "byteLength": 8064,
      "name": "uvs",
      "target": 34962
    },
    {
      "buffer": 20,
      "byteLength": 984,
      "name": "positions",
      "target": 34962
    },
    {
      "buffer": 21,
      "byteLength": 1200,
      "name": "pos_index",
      "target": 34963
    },
    {
      "buffer": 22,
      "byteLength": 984,
      "name": "normals",
      "target": 34962
    },
    {
      "buffer": 23,
      "byteLength": 656,
      "name": "uvs",
      "target": 34962
    },
    {
      "buffer": 24,
      "byteLength": 16956,
      "name": "positions",
      "target": 34962
    },
    {
      "buffer": 25,
      "byteLength": 19584,
      "name": "pos_index",
      "target": 34963
    },
    {
      "buffer": 26,
      "byteLength": 16956,
      "name": "normals",
      "target": 34962
    },
    {
      "buffer": 27,
      "byteLength": 11304,
      "name": "uvs",
      "target": 34962
    },
    {
      "buffer": 28,
      "byteLength": 32604,
      "name": "positions",
      "target": 34962
    },
    {
      "buffer": 29,
      "byteLength": 18504,
      "name": "pos_index",
      "target": 34963
    },
    {
      "buffer": 30,
      "byteLength": 32604,
      "name": "normals",
      "target": 34962
    },
    {
      "buffer": 31,
      "byteLength": 21736,
      "name": "uvs",
      "target": 34962
    }
  ],
  "buffers": [
    {
      "byteLength": 34488,
      "name": "positions",
      "uri": "data:application/octet-stream;base64,"
    },
    {
      "byteLength": 19608,
      "name": "pos_index",
      "uri": "data:application/octet-stream;base64,"
    },
    {
      "byteLength": 34488,
      "name": "normals",
      "uri": "data:application/octet-stream;base64,"
    },
    {
      "byteLength": 22992,
      "name": "uvs",
      "uri": "data:application/octet-stream;base64,"
    },
    {
      "byteLength": 17184,
      "name": "positions",
      "uri": "data:application/octet-stream;base64,"
    },
    {
      "byteLength": 19608,
      "name": "pos_index",
      "uri": "data:application/octet-stream;base64,"
    },
    {
      "byteLength": 17184,
      "name": "normals",
      "uri": "data:application/octet-stream;base64,"
    },
    {
      "byteLength": 11456,
      "name": "uvs",
      "uri": "data:application/octet-stream;base64,"
    },
    {
      "byteLength": 19920,
      "name": "positions",
      "uri": "data:application/octet-stream;base64,"
    },
    {
      "byteLength": 19608,
      "name": "pos_index",
      "uri": "data:application/octet-stream;base64,"
    },
    {
      "byteLength": 19920,
      "name": "normals",
      "uri": "data:application/octet-stream;base64,"
    },
    {
      "byteLength": 13280,
      "name": "uvs",
      "uri": "data:application/octet-stream;base64,"
    },
    {
      "byteLength": 12288,
      "name": "positions",
      "uri": "data:application/octet-stream;base64,"
    },
    {
      "byteLength": 19608,
      "name": "pos_index",
      "uri": "data:application/octet-stream;base64,"
    },
    {
      "byteLength": 12288,
      "name": "normals",
      "uri": "data:application/octet-stream;base64,"
    },
    {
      "byteLength": 8192,
      "name": "uvs",
      "uri": "data:application/octet-stream;base64,"
    },
    {
      "byteLength": 12096,
      "name": "positions",
      "uri": "data:application/octet-stream;base64,"
    },
    {
      "byteLength": 19608,
      "name": "pos_index",
      "uri": "data:application/octet-stream;base64,"
    },
    {
      "byteLength": 12096,
      "name": "normals",
      "uri": "data:application/octet-stream;base64,"
    },
    {
      "byteLength": 8064,
      "name": "uvs",
      "uri": "data:application/octet-stream;base64,"
    },
    {
      "byteLength": 984,
      "name": "positions",
      "uri": "data:application/octet-stream;base64,"
    },
    {
      "byteLength": 1200,
      "name": "pos_index",
      "uri": "data:application/octet-stream;base64,"
    },
    {
      "byteLength": 984,
      "name": "normals",
      "uri": "data:application/octet-stream;base64,"
    },
    {
      "byteLength": 656,
      "name": "uvs",
      "uri": "data:application/octet-stream;base64,"
    },
    {
      "byteLength": 16956,
      "name": "positions",
      "uri": "data:application/octet-stream;base64,"
    },
    {
      "byteLength": 19584,
      "name": "pos_index",
      "uri": "data:application/octet-stream;base64,"
    },
    {
      "byteLength": 16956,
      "name": "normals",
      "uri": "data:application/octet-stream;base64,"
    },
    {
      "byteLength": 11304,
      "name": "uvs",
      "uri": "data:application/octet-stream;base64,"
    },
    {
      "byteLength": 32604,
      "name": "positions",
      "uri": "data:application/octet-stream;base64,"
    },
    {
      "byteLength": 18504,
      "name": "pos_index",
      "uri": "data:application/octet-stream;base64,"
    },
    {
      "byteLength": 32604,
      "name": "normals",
      "uri": "data:application/octet-stream;base64,"
    },
    {
      "byteLength": 21736,
      "name": "uvs",
      "uri": "data:application/octet-stream;base64,"
    }
  ],
  "extensionsUsed": [
    "KHR_materials_transmission"
  ],
  "images": [
    {
      "uri": "model_0_color.png"
    },
    {
      "uri": "model_0_metallicRoughness.png"
    },
    {
      "uri": "model_0_transmittance.png"
    },
    {
      "uri": "model_1_color.png"
    },
    {
      "uri": "model_1_metallicRoughness.png"
    },
    {
      "uri": "model_1_transmittance.png"
    },
    {
      "uri": "model_2_color.png"
    },
    {
      "uri": "model_2_metallicRoughness.png"
    },
    {
      "uri": "model_2_transmittance.png"
    },
    {
      "uri": "model_3_color.png"
    },
    {
      "uri": "model_3_metallicRoughness.png"
    },
    {
      "uri": "model_3_transmittance.png"
    },
    {
      "uri": "model_4_color.png"
    },
    {
      "uri": "model_4_metallicRoughness.png"
    },
    {
      "uri": "model_4_transmittance.png"
    },
    {
      "uri": "model_5_color.png"
    },
    {
      "uri": "model_5_metallicRoughness.png"
    },
    {
      "uri": "model_5_transmittance.png"
    },
    {
      "uri": "model_6_color.png"
    },
    {
      "uri": "model_6_metallicRoughness.png"
    },
    {
      "uri": "model_6_transmittance.png"
    },
    {
      "uri": "model_7_color.png"
    },
    {
      "uri": "model_7_metallicRoughness.png"
    },
    {
      "uri": "model_7_transmittance.png"
    }
  ],
  "materials": [
    {
      "doubleSided": true,
      "extensions": {
        "KHR_materials_transmission": {
          "transmissionFactor": 1.0,
          "transmissionTexture": {
            "index": 2
          }
        }
      },
      "name": "Area (1)",
      "pbrMetallicRoughness": {
        "baseColorTexture": {
          "index": 0
        },
        "metallicRoughnessTexture": {
          "index": 1
        }
      }
    },
    {
      "doubleSided": true,
      "extensions": {
        "KHR_materials_transmission": {
          "transmissionFactor": 1.0,
          "transmissionTexture": {
            "index": 5
          }
        }
      },
      "name": "Area (2)",
      "pbrMetallicRoughness": {
        "baseColorTexture": {
          "index": 3
        },
        "metallicRoughnessTexture": {
          "index": 4
        }
      }
    },
    {
      "doubleSided": true,
      "extensions": {
        "KHR_materials_transmission": {
          "transmissionFactor": 1.0,
          "transmissionTexture": {
            "index": 8
          }
        }
      },
      "name": "Area (3)",
      "pbrMetallicRoughness": {
        "baseColorTexture": {
          "index": 6
        },
        "metallicRoughnessTexture": {
          "index": 7
        }
      }
    },
    {
      "doubleSided": true,
      "extensions": {
        "KHR_materials_transmission": {
          "transmissionFactor": 1.0,
          "transmissionTexture": {
            "index": 11
          }
        }
      },
      "name": "Area (4)",
      "pbrMetallicRoughness": {
        "baseColorTexture": {
          "index": 9
        },
        "metallicRoughnessTexture": {
          "index": 10
        }
      }
    },
    {
      "doubleSided": true,
      "extensions": {
        "KHR_materials_transmission": {
          "transmissionFactor": 1.0,
          "transmissionTexture": {
            "index": 14
          }
        }
      },
      "name": "Area (6)",
      "pbrMetallicRoughness": {
        "baseColorTexture": {
          "index": 12
        },
        "metallicRoughnessTexture": {
          "index": 13
        }
      }
    },
    {
      "doubleSided": true,
      "extensions": {
        "KHR_materials_transmission": {
          "transmissionFactor": 1.0,
          "transmissionTexture": {
            "index": 17
          }
        }
      },
      "name": "Area (7)",
      "pbrMetallicRoughness": {
        "baseColorTexture": {
          "index": 15
        },
        "metallicRoughnessTexture": {
          "index": 16
        }
      }
    },
    {
      "doubleSided": true,
      "extensions": {
        "KHR_materials_transmission": {
          "transmissionFactor": 1.0,
          "transmissionTexture": {
            "index": 20
          }
        }
      },
      "name": "Area (8)",
      "pbrMetallicRoughness": {
        "baseColorTexture": {
          "index": 18
        },
        "metallicRoughnessTexture": {
          "index": 19
        }
      }
    },
    {
      "doubleSided": true,
      "extensions": {
        "KHR_materials_transmission": {
          "transmissionFactor": 1.0,
          "transmissionTexture": {
            "index": 23
          }
        }
      },
      "name": "Mac (1)",
      "pbrMetallicRoughness": {
        "baseColorTexture": {
          "index": 21
        },
        "metallicRoughnessTexture": {
          "index": 22
        }
      }
    }
  ],
  "meshes": [
    {
      "name": "Area (1)",
      "primitives": [
        {
          "attributes": {
            "NORMAL": 2,
            "POSITION": 0,
            "TEXCOORD_0": 3
          },
          "indices": 1,
          "material": 0,
          "mode": 4
        }
      ]
    },
    {
      "name": "Area (2)",
      "primitives": [
        {
          "attributes": {
            "NORMAL": 6,
            "POSITION": 4,
            "TEXCOORD_0": 7
          },
          "indices": 5,
          "material": 1,
          "mode": 4
        }
      ]
    },
    {
      "name": "Area (3)",
      "primitives": [
        {
          "attributes": {
            "NORMAL": 10,
            "POSITION": 8,
            "TEXCOORD_0": 11
          },
          "indices": 9,
          "material": 2,
          "mode": 4
        }
      ]
    },
    {
      "name": "Area (4)",
      "primitives": [
        {
          "attributes": {
            "NORMAL": 14,
            "POSITION": 12,
            "TEXCOORD_0": 15
          },
          "indices": 13,
          "material": 3,
          "mode": 4
        }
      ]
    },
    {
      "name": "Area (6)",
      "primitives": [
        {
          "attributes": {
            "NORMAL": 18,
            "POSITION": 16,
            "TEXCOORD_0": 19
          },
          "indices": 17,
          "material": 4,
          "mode": 4
        }
      ]
    },
    {
      "name": "Area (7)",
      "primitives": [
        {
          "attributes": {
            "NORMAL": 22,
            "POSITION": 20,
            "TEXCOORD_0": 23
          },
          "indices": 21,
          "material": 5,
          "mode": 4
        }
      ]
    },
    {
      "name": "Area (8)",
      "primitives": [
        {
          "attributes": {
            "NORMAL": 26,
            "POSITION": 24,
            "TEXCOORD_0": 27
          },
          "indices": 25,
          "material": 6,
          "mode": 4
        }
      ]
    },
    {
      "name": "Mac (1)",
      "primitives": [
        {
          "attributes": {
            "NORMAL": 30,
            "POSITION": 28,
            "TEXCOORD_0": 31
          },
          "indices": 29,
          "material": 7,
          "mode": 4
        }
      ]
    }
  ],
  "nodes": [
    {
      "mesh": 0,
      "name": "Area (1)"
    },
    {
      "mesh": 1,
      "name": "Area (2)"
    },
    {
      "mesh": 2,
      "name": "Area (3)"
    },
    {
      "mesh": 3,
      "name": "Area (4)"
    },
    {
      "mesh": 4,
      "name": "Area (6)"
    },
    {
      "mesh": 5,
      "name": "Area (7)"
    },
    {
      "mesh": 6,
      "name": "Area (8)"
    },
    {
      "mesh": 7,
      "name": "Mac (1)"
    }
  ],
  "scene": 0,
  "scenes": [
    {
      "nodes": [
        0,
        1,
        2,
        3,
        4,
        5,
        6,
        7
      ]
    }
  ],
  "textures": [
    {
      "source": 0
    },
    {
      "source": 1
    },
    {
      "source": 2
    },
    {
      "source": 3
    },
    {
      "source": 4
    },
    {
      "source": 5
    },
    {
      "source": 6
    },
    {
      "source": 7
    },
    {
      "source": 8
    },
    {
      "source": 9
    },
    {
      "source": 10
    },
    {
      "source": 11
    },
    {
      "source": 12
    },
    {
      "source": 13
    },
    {
      "source": 14
    },
    {
      "source": 15
    },
    {
      "source": 16
    },
    {
      "source": 17
    },
    {
      "source": 18
    },
    {
      "source": 19
    },
    {
      "source": 20
    },
    {
      "source": 21
    },
    {
      "source": 22
    },
    {
      "source": 23
    }
  ]
}
